<?xml version="1.0" standalone="no"?>
<!DOCTYPE svg PUBLIC "-//W3C//DTD SVG 20010904//EN"
 "http://www.w3.org/TR/2001/REC-SVG-20010904/DTD/svg10.dtd">
<svg version="1.0" xmlns="http://www.w3.org/2000/svg"
 width="512.000000pt" height="512.000000pt" viewBox="0 0 512.000000 512.000000"
 preserveAspectRatio="xMidYMid meet">
<metadata>
Created by potrace 1.14, written by Peter Selinger 2001-2017
</metadata>
<g transform="translate(0.000000,512.000000) scale(0.100000,-0.100000)"
fill="#000000" stroke="none">
<path d="M0 2560 l0 -2560 2560 0 2560 0 0 2560 0 2560 -2560 0 -2560 0 0
-2560z m1545 1392 c182 -57 312 -158 423 -330 140 -216 131 -547 -21 -765 -22
-31 -38 -59 -36 -60 2 -2 20 -13 39 -25 19 -12 42 -26 50 -32 12 -8 -21 -45
-169 -194 l-184 -184 -32 33 c-50 52 -81 57 -370 53 l-260 -3 -3 -348 c-2
-348 -2 -349 19 -354 18 -5 -12 -39 -202 -229 -222 -222 -224 -224 -266 -224
l-43 0 0 1346 0 1346 493 -5 c470 -3 495 -5 562 -25z m2334 17 c159 -25 269
-84 396 -213 144 -145 208 -295 207 -486 0 -133 -17 -211 -67 -315 -71 -145
-168 -250 -297 -322 -27 -14 -48 -30 -48 -35 0 -8 43 -93 205 -403 128 -246
185 -355 290 -560 59 -115 125 -243 147 -283 l39 -72 -278 0 -278 0 -123 238
c-67 130 -171 332 -231 447 -60 116 -151 292 -203 392 l-93 183 -72 0 -73 0 0
-98 0 -99 -242 -241 c-200 -199 -244 -238 -248 -221 -3 11 -4 488 -2 1060 l2
1039 453 0 c266 0 478 -4 516 -11z m-1839 -1267 c0 -14 -369 -376 -377 -369
-7 8 355 377 369 377 5 0 8 -3 8 -8z m-158 -215 c-105 -105 -195 -188 -199
-184 -9 10 368 388 380 380 5 -3 -77 -91 -181 -196z m199 146 c-18 -33 -370
-377 -378 -370 -4 4 80 95 187 202 107 107 196 193 198 190 2 -2 -1 -12 -7
-22z m39 -11 c0 -4 -90 -97 -200 -207 -110 -110 -200 -195 -200 -189 0 13 378
404 391 404 5 0 9 -3 9 -8z m30 -29 c0 -11 -420 -417 -420 -406 0 10 402 413
412 413 5 0 8 -3 8 -7z m20 -31 c0 -4 -97 -104 -215 -222 -118 -118 -215 -208
-215 -200 0 15 408 430 422 430 5 0 8 -3 8 -8z m-196 -263 c-126 -126 -231
-224 -233 -218 -5 15 440 460 452 452 5 -3 -94 -109 -219 -234z m5 -45 c-134
-134 -246 -239 -248 -233 -5 15 470 490 482 482 5 -3 -100 -115 -234 -249z
m261 213 c0 -1 -121 -124 -270 -272 -148 -148 -270 -266 -270 -260 0 11 521
535 532 535 5 0 8 -1 8 -3z m10 -44 c0 -15 -1125 -1133 -1140 -1133 -8 0 242
256 555 570 314 313 573 570 578 570 4 0 7 -3 7 -7z m-521 -589 c-299 -299
-551 -544 -559 -544 -8 0 235 250 540 555 305 305 557 550 559 544 2 -6 -241
-256 -540 -555z m30 -20 c-288 -288 -531 -524 -539 -524 -8 0 226 241 520 535
294 294 537 530 539 524 2 -6 -232 -247 -520 -535z m541 488 c0 -14 -1006
-1012 -1020 -1012 -8 0 215 230 495 510 280 281 513 510 517 510 5 0 8 -3 8
-8z m859 -258 c-134 -134 -246 -239 -248 -233 -2 6 106 121 240 255 134 134
246 239 248 233 2 -6 -106 -121 -240 -255z m-849 219 c0 -15 -965 -973 -980
-973 -8 0 206 220 475 490 269 270 493 490 497 490 5 0 8 -3 8 -7z m850 -268
c-135 -135 -247 -240 -249 -233 -4 13 480 490 489 482 2 -3 -106 -115 -240
-249z m-840 216 c0 -12 -916 -915 -933 -920 -6 -2 197 207 453 463 256 256
468 466 472 466 5 0 8 -4 8 -9z m841 -274 c-133 -131 -245 -236 -249 -233 -3
4 104 117 238 251 135 135 247 240 249 233 2 -7 -105 -119 -238 -251z m-1272
-213 c-239 -239 -441 -434 -449 -434 -8 0 185 200 430 445 245 245 447 440
449 434 2 -6 -192 -207 -430 -445z m1271 161 c-134 -134 -246 -242 -249 -239
-3 3 105 115 239 249 134 134 246 242 249 239 3 -3 -105 -115 -239 -249z
m-830 233 c0 -18 -812 -828 -830 -828 -8 0 174 189 405 420 231 231 421 420
422 420 2 0 3 -5 3 -12z m829 -294 c-134 -134 -246 -239 -248 -233 -2 6 106
121 240 255 134 134 246 239 248 233 2 -6 -106 -121 -240 -255z m-829 239 c0
-15 -765 -773 -780 -773 -8 0 161 176 375 390 214 215 393 390 397 390 5 0 8
-3 8 -7z m828 -292 c-134 -131 -245 -235 -247 -229 -4 12 483 489 487 477 2
-4 -106 -116 -240 -248z m-1178 -117 c-190 -190 -354 -350 -365 -356 -11 -5
142 152 340 351 197 198 361 358 364 355 3 -3 -150 -160 -339 -350z m1179 60
c-134 -134 -246 -239 -248 -233 -2 6 106 121 240 255 134 134 246 239 248 233
2 -6 -106 -121 -240 -255z m-1150 -91 c-167 -167 -313 -309 -324 -315 -24 -13
65 82 380 400 132 133 242 237 244 231 2 -6 -133 -148 -300 -316z m1151 42
c-135 -135 -247 -240 -249 -233 -4 12 480 489 489 481 2 -2 -106 -114 -240
-248z m-867 201 c-20 -35 -515 -534 -535 -539 -12 -4 101 117 257 273 154 154
281 280 283 280 2 0 -1 -6 -5 -14z m869 -259 c-133 -133 -245 -238 -249 -234
-4 4 103 118 237 252 135 135 247 240 249 234 2 -6 -105 -120 -237 -252z m-3
-58 c-134 -130 -246 -232 -248 -227 -2 6 106 120 240 254 172 172 245 239 248
227 2 -11 -76 -94 -240 -254z m-898 224 c-17 -32 -417 -423 -432 -423 -11 1
426 438 439 440 1 0 -2 -8 -7 -17z m913 -264 c-126 -126 -236 -229 -244 -229
-8 0 93 108 225 240 132 132 242 235 244 229 2 -6 -99 -114 -225 -240z m-2314
6 c-124 -124 -231 -225 -238 -225 -8 0 84 101 205 225 138 142 225 224 238
225 14 0 -51 -71 -205 -225z m50 0 c-124 -124 -232 -225 -240 -225 -8 0 86
101 210 225 124 124 232 225 240 225 8 0 -86 -101 -210 -225z m50 0 c-124
-124 -229 -225 -235 -225 -5 0 91 101 215 225 124 124 229 225 235 225 5 0
-91 -101 -215 -225z m60 0 c-124 -124 -232 -225 -240 -225 -8 0 86 101 210
225 124 124 232 225 240 225 8 0 -86 -101 -210 -225z m99 47 c-96 -97 -194
-199 -219 -224 -25 -26 -51 -48 -58 -48 -8 0 85 101 205 225 120 124 224 225
232 225 8 0 -64 -80 -160 -178z m11 -47 c-124 -124 -231 -225 -239 -225 -8 0
86 101 209 225 123 124 231 225 239 225 9 0 -85 -101 -209 -225z m53 0 c-120
-124 -225 -225 -233 -225 -8 0 86 101 210 225 124 124 229 225 233 225 5 0
-90 -101 -210 -225z m57 0 c-124 -124 -232 -225 -240 -225 -8 0 86 101 210
225 124 124 232 225 240 225 8 0 -86 -101 -210 -225z m60 0 c-124 -124 -232
-225 -240 -225 -8 0 86 101 210 225 124 124 232 225 240 225 8 0 -86 -101
-210 -225z m1937 3 c-179 -187 -233 -238 -250 -238 -7 0 82 94 198 210 115
115 211 207 213 205 3 -2 -70 -82 -161 -177z m-1046 130 c-36 -52 -194 -208
-236 -232 -16 -10 35 47 115 128 80 80 146 146 148 146 2 0 -10 -19 -27 -42z
m1038 -194 c-96 -96 -181 -174 -189 -174 -8 0 68 83 170 185 102 102 187 180
189 174 2 -6 -75 -90 -170 -185z m26 -24 c-83 -83 -154 -150 -160 -150 -5 0
60 70 145 155 85 85 156 152 159 149 3 -2 -62 -72 -144 -154z m29 -31 c-65
-66 -125 -119 -134 -119 -8 0 44 59 115 130 72 72 132 125 134 119 2 -6 -50
-65 -115 -130z m26 -24 c-52 -52 -99 -95 -105 -95 -5 0 35 45 90 100 54 54
101 97 104 94 3 -2 -37 -47 -89 -99z m29 -31 c-35 -35 -70 -64 -78 -64 -9 0
18 34 59 75 41 42 77 70 79 64 2 -6 -25 -40 -60 -75z m26 -24 c-22 -22 -44
-40 -49 -40 -6 0 10 20 34 45 24 24 46 42 49 40 2 -3 -13 -23 -34 -45z m32
-25 c-4 -8 -14 -15 -23 -15 -16 0 -16 2 1 20 20 22 31 20 22 -5z"/>
<path d="M987 3483 c-4 -3 -7 -107 -7 -230 l0 -223 233 0 c212 0 236 2 277 21
85 38 127 96 136 186 8 73 -16 136 -71 188 -62 58 -101 65 -345 65 -119 0
-220 -3 -223 -7z"/>
<path d="M3400 3260 l0 -231 243 3 242 3 48 28 c153 90 148 321 -10 398 -46
23 -59 24 -285 27 l-238 3 0 -231z"/>
</g>
</svg>
